<mxfile host="app.diagrams.net" modified="2021-02-06T08:00:38.634Z" agent="5.0 (Windows)" etag="tkEHU0kJ4DZA-2bsio_a" version="14.2.9" type="github">
  <diagram id="PTf_vXegEnFW1VDK41dF" name="Page-1">
    <mxGraphModel dx="1038" dy="575" grid="1" gridSize="10" guides="1" tooltips="1" connect="1" arrows="1" fold="1" page="1" pageScale="1" pageWidth="827" pageHeight="1169" math="0" shadow="0">
      <root>
        <mxCell id="0" />
        <mxCell id="1" parent="0" />
        <mxCell id="GxP-xJAW-okSkQTJSR7Y-23" value="" style="edgeStyle=orthogonalEdgeStyle;rounded=0;orthogonalLoop=1;jettySize=auto;html=1;" edge="1" parent="1" source="GxP-xJAW-okSkQTJSR7Y-1" target="GxP-xJAW-okSkQTJSR7Y-3">
          <mxGeometry relative="1" as="geometry" />
        </mxCell>
        <mxCell id="GxP-xJAW-okSkQTJSR7Y-1" value="" style="ellipse;whiteSpace=wrap;html=1;aspect=fixed;fillColor=#000000;" vertex="1" parent="1">
          <mxGeometry x="171" y="60" width="34" height="34" as="geometry" />
        </mxCell>
        <mxCell id="GxP-xJAW-okSkQTJSR7Y-2" value="" style="ellipse;whiteSpace=wrap;html=1;fillColor=#FFFFFF;" vertex="1" parent="1">
          <mxGeometry x="130" y="120" width="110" height="40" as="geometry" />
        </mxCell>
        <mxCell id="GxP-xJAW-okSkQTJSR7Y-5" value="" style="edgeStyle=orthogonalEdgeStyle;rounded=0;orthogonalLoop=1;jettySize=auto;html=1;" edge="1" parent="1" source="GxP-xJAW-okSkQTJSR7Y-3">
          <mxGeometry relative="1" as="geometry">
            <mxPoint x="188" y="220" as="targetPoint" />
          </mxGeometry>
        </mxCell>
        <mxCell id="GxP-xJAW-okSkQTJSR7Y-3" value="Ввод a, b, c" style="text;html=1;strokeColor=none;fillColor=none;align=center;verticalAlign=middle;whiteSpace=wrap;rounded=0;" vertex="1" parent="1">
          <mxGeometry x="148" y="130" width="80" height="20" as="geometry" />
        </mxCell>
        <mxCell id="GxP-xJAW-okSkQTJSR7Y-9" value="" style="edgeStyle=orthogonalEdgeStyle;rounded=0;orthogonalLoop=1;jettySize=auto;html=1;" edge="1" parent="1" source="GxP-xJAW-okSkQTJSR7Y-7" target="GxP-xJAW-okSkQTJSR7Y-8">
          <mxGeometry relative="1" as="geometry" />
        </mxCell>
        <mxCell id="GxP-xJAW-okSkQTJSR7Y-11" value="" style="edgeStyle=orthogonalEdgeStyle;rounded=0;orthogonalLoop=1;jettySize=auto;html=1;" edge="1" parent="1" source="GxP-xJAW-okSkQTJSR7Y-7" target="GxP-xJAW-okSkQTJSR7Y-10">
          <mxGeometry relative="1" as="geometry" />
        </mxCell>
        <mxCell id="GxP-xJAW-okSkQTJSR7Y-7" value="" style="rhombus;whiteSpace=wrap;html=1;fillColor=#FFFFFF;" vertex="1" parent="1">
          <mxGeometry x="165.5" y="220" width="45" height="40" as="geometry" />
        </mxCell>
        <mxCell id="GxP-xJAW-okSkQTJSR7Y-16" value="" style="edgeStyle=orthogonalEdgeStyle;rounded=0;orthogonalLoop=1;jettySize=auto;html=1;" edge="1" parent="1" source="GxP-xJAW-okSkQTJSR7Y-8" target="GxP-xJAW-okSkQTJSR7Y-15">
          <mxGeometry relative="1" as="geometry" />
        </mxCell>
        <mxCell id="GxP-xJAW-okSkQTJSR7Y-20" value="" style="edgeStyle=orthogonalEdgeStyle;rounded=0;orthogonalLoop=1;jettySize=auto;html=1;" edge="1" parent="1" source="GxP-xJAW-okSkQTJSR7Y-8" target="GxP-xJAW-okSkQTJSR7Y-19">
          <mxGeometry relative="1" as="geometry" />
        </mxCell>
        <mxCell id="GxP-xJAW-okSkQTJSR7Y-8" value="" style="rhombus;whiteSpace=wrap;html=1;fillColor=#FFFFFF;" vertex="1" parent="1">
          <mxGeometry x="165.5" y="300" width="45" height="40" as="geometry" />
        </mxCell>
        <mxCell id="GxP-xJAW-okSkQTJSR7Y-25" value="" style="edgeStyle=orthogonalEdgeStyle;rounded=0;orthogonalLoop=1;jettySize=auto;html=1;entryX=0.5;entryY=0;entryDx=0;entryDy=0;" edge="1" parent="1" source="GxP-xJAW-okSkQTJSR7Y-10" target="GxP-xJAW-okSkQTJSR7Y-37">
          <mxGeometry relative="1" as="geometry">
            <mxPoint x="640" y="440" as="targetPoint" />
          </mxGeometry>
        </mxCell>
        <mxCell id="GxP-xJAW-okSkQTJSR7Y-27" value="" style="edgeStyle=orthogonalEdgeStyle;rounded=0;orthogonalLoop=1;jettySize=auto;html=1;" edge="1" parent="1" source="GxP-xJAW-okSkQTJSR7Y-10" target="GxP-xJAW-okSkQTJSR7Y-26">
          <mxGeometry relative="1" as="geometry" />
        </mxCell>
        <mxCell id="GxP-xJAW-okSkQTJSR7Y-10" value="" style="rhombus;whiteSpace=wrap;html=1;fillColor=#FFFFFF;" vertex="1" parent="1">
          <mxGeometry x="490" y="320" width="45" height="40" as="geometry" />
        </mxCell>
        <mxCell id="GxP-xJAW-okSkQTJSR7Y-13" value="[ else ]" style="text;html=1;strokeColor=none;fillColor=none;align=center;verticalAlign=middle;whiteSpace=wrap;rounded=0;" vertex="1" parent="1">
          <mxGeometry x="228" y="220" width="40" height="20" as="geometry" />
        </mxCell>
        <mxCell id="GxP-xJAW-okSkQTJSR7Y-14" value="[ a &amp;gt; b and b &amp;gt; c]" style="text;html=1;strokeColor=none;fillColor=none;align=center;verticalAlign=middle;whiteSpace=wrap;rounded=0;" vertex="1" parent="1">
          <mxGeometry x="92" y="270" width="98" height="20" as="geometry" />
        </mxCell>
        <mxCell id="GxP-xJAW-okSkQTJSR7Y-15" value="" style="ellipse;whiteSpace=wrap;html=1;fillColor=#FFFFFF;" vertex="1" parent="1">
          <mxGeometry x="128" y="400" width="120" height="40" as="geometry" />
        </mxCell>
        <mxCell id="GxP-xJAW-okSkQTJSR7Y-17" value="[ b &amp;gt; c]" style="text;html=1;strokeColor=none;fillColor=none;align=center;verticalAlign=middle;whiteSpace=wrap;rounded=0;" vertex="1" parent="1">
          <mxGeometry x="100" y="360" width="90" height="20" as="geometry" />
        </mxCell>
        <mxCell id="GxP-xJAW-okSkQTJSR7Y-18" value="&lt;div&gt;print c, b, a&lt;/div&gt;&lt;div&gt;print a, b, c&lt;br&gt;&lt;/div&gt;" style="text;html=1;strokeColor=none;fillColor=none;align=center;verticalAlign=middle;whiteSpace=wrap;rounded=0;" vertex="1" parent="1">
          <mxGeometry x="140" y="400" width="90" height="40" as="geometry" />
        </mxCell>
        <mxCell id="GxP-xJAW-okSkQTJSR7Y-19" value="" style="ellipse;whiteSpace=wrap;html=1;fillColor=#FFFFFF;" vertex="1" parent="1">
          <mxGeometry x="288" y="400" width="120" height="40" as="geometry" />
        </mxCell>
        <mxCell id="GxP-xJAW-okSkQTJSR7Y-21" value="&lt;div&gt;print b, c, a&lt;br&gt;&lt;/div&gt;&lt;div&gt;print a, c, b&lt;br&gt;&lt;/div&gt;" style="text;html=1;strokeColor=none;fillColor=none;align=center;verticalAlign=middle;whiteSpace=wrap;rounded=0;" vertex="1" parent="1">
          <mxGeometry x="303" y="400" width="90" height="40" as="geometry" />
        </mxCell>
        <mxCell id="GxP-xJAW-okSkQTJSR7Y-22" value="[ else ]" style="text;html=1;strokeColor=none;fillColor=none;align=center;verticalAlign=middle;whiteSpace=wrap;rounded=0;" vertex="1" parent="1">
          <mxGeometry x="228" y="300" width="40" height="20" as="geometry" />
        </mxCell>
        <mxCell id="GxP-xJAW-okSkQTJSR7Y-33" value="" style="edgeStyle=orthogonalEdgeStyle;rounded=0;orthogonalLoop=1;jettySize=auto;html=1;" edge="1" parent="1" target="GxP-xJAW-okSkQTJSR7Y-32">
          <mxGeometry relative="1" as="geometry">
            <mxPoint x="642.5" y="440" as="sourcePoint" />
          </mxGeometry>
        </mxCell>
        <mxCell id="GxP-xJAW-okSkQTJSR7Y-26" value="" style="ellipse;whiteSpace=wrap;html=1;fillColor=#FFFFFF;" vertex="1" parent="1">
          <mxGeometry x="452.5" y="400" width="120" height="40" as="geometry" />
        </mxCell>
        <mxCell id="GxP-xJAW-okSkQTJSR7Y-28" value="[ a &amp;gt; b and c &amp;gt; a]" style="text;html=1;strokeColor=none;fillColor=none;align=center;verticalAlign=middle;whiteSpace=wrap;rounded=0;" vertex="1" parent="1">
          <mxGeometry x="414" y="360" width="98" height="20" as="geometry" />
        </mxCell>
        <mxCell id="GxP-xJAW-okSkQTJSR7Y-29" value="&lt;div&gt;print b, a, c&lt;br&gt;&lt;/div&gt;&lt;div&gt;print c, a, b&lt;br&gt;&lt;/div&gt;" style="text;html=1;strokeColor=none;fillColor=none;align=center;verticalAlign=middle;whiteSpace=wrap;rounded=0;" vertex="1" parent="1">
          <mxGeometry x="467.5" y="400" width="90" height="40" as="geometry" />
        </mxCell>
        <mxCell id="GxP-xJAW-okSkQTJSR7Y-32" value="" style="ellipse;whiteSpace=wrap;html=1;fillColor=#FFFFFF;" vertex="1" parent="1">
          <mxGeometry x="592.5" y="500" width="100" height="40" as="geometry" />
        </mxCell>
        <mxCell id="GxP-xJAW-okSkQTJSR7Y-35" value="[ else ]" style="text;html=1;strokeColor=none;fillColor=none;align=center;verticalAlign=middle;whiteSpace=wrap;rounded=0;" vertex="1" parent="1">
          <mxGeometry x="540" y="320" width="40" height="20" as="geometry" />
        </mxCell>
        <mxCell id="GxP-xJAW-okSkQTJSR7Y-40" value="" style="edgeStyle=orthogonalEdgeStyle;rounded=0;orthogonalLoop=1;jettySize=auto;html=1;" edge="1" parent="1" source="GxP-xJAW-okSkQTJSR7Y-37" target="GxP-xJAW-okSkQTJSR7Y-39">
          <mxGeometry relative="1" as="geometry" />
        </mxCell>
        <mxCell id="GxP-xJAW-okSkQTJSR7Y-37" value="&lt;div&gt;print a , b, c&lt;br&gt;&lt;/div&gt;&lt;div&gt;print c, b, a&lt;br&gt;&lt;/div&gt;" style="text;html=1;strokeColor=none;fillColor=none;align=center;verticalAlign=middle;whiteSpace=wrap;rounded=0;" vertex="1" parent="1">
          <mxGeometry x="597.5" y="500" width="90" height="40" as="geometry" />
        </mxCell>
        <mxCell id="GxP-xJAW-okSkQTJSR7Y-39" value="" style="ellipse;whiteSpace=wrap;html=1;aspect=fixed;fillColor=#000000;" vertex="1" parent="1">
          <mxGeometry x="622.5" y="620" width="40" height="40" as="geometry" />
        </mxCell>
        <mxCell id="GxP-xJAW-okSkQTJSR7Y-45" value="" style="endArrow=none;html=1;entryX=0.5;entryY=1;entryDx=0;entryDy=0;" edge="1" parent="1" target="GxP-xJAW-okSkQTJSR7Y-29">
          <mxGeometry width="50" height="50" relative="1" as="geometry">
            <mxPoint x="513" y="560" as="sourcePoint" />
            <mxPoint x="600" y="430" as="targetPoint" />
          </mxGeometry>
        </mxCell>
        <mxCell id="GxP-xJAW-okSkQTJSR7Y-48" value="" style="endArrow=none;html=1;" edge="1" parent="1">
          <mxGeometry width="50" height="50" relative="1" as="geometry">
            <mxPoint x="510" y="560" as="sourcePoint" />
            <mxPoint x="640" y="560" as="targetPoint" />
          </mxGeometry>
        </mxCell>
        <mxCell id="GxP-xJAW-okSkQTJSR7Y-49" value="" style="endArrow=none;html=1;entryX=0.5;entryY=1;entryDx=0;entryDy=0;" edge="1" parent="1" target="GxP-xJAW-okSkQTJSR7Y-21">
          <mxGeometry width="50" height="50" relative="1" as="geometry">
            <mxPoint x="348" y="580" as="sourcePoint" />
            <mxPoint x="440" y="490" as="targetPoint" />
          </mxGeometry>
        </mxCell>
        <mxCell id="GxP-xJAW-okSkQTJSR7Y-50" value="" style="endArrow=none;html=1;" edge="1" parent="1">
          <mxGeometry width="50" height="50" relative="1" as="geometry">
            <mxPoint x="640" y="580" as="sourcePoint" />
            <mxPoint x="350" y="580" as="targetPoint" />
          </mxGeometry>
        </mxCell>
        <mxCell id="GxP-xJAW-okSkQTJSR7Y-51" value="" style="endArrow=none;html=1;entryX=0.5;entryY=1;entryDx=0;entryDy=0;" edge="1" parent="1" target="GxP-xJAW-okSkQTJSR7Y-18">
          <mxGeometry width="50" height="50" relative="1" as="geometry">
            <mxPoint x="185" y="600" as="sourcePoint" />
            <mxPoint x="270" y="500" as="targetPoint" />
          </mxGeometry>
        </mxCell>
        <mxCell id="GxP-xJAW-okSkQTJSR7Y-52" value="" style="endArrow=none;html=1;" edge="1" parent="1">
          <mxGeometry width="50" height="50" relative="1" as="geometry">
            <mxPoint x="644" y="600" as="sourcePoint" />
            <mxPoint x="184" y="600" as="targetPoint" />
          </mxGeometry>
        </mxCell>
      </root>
    </mxGraphModel>
  </diagram>
</mxfile>
